<svg width="501" height="349" viewBox="0 0 501 349" fill="none" xmlns="http://www.w3.org/2000/svg">
<path opacity="0.1" d="M289.872 58.3146C257.997 57.206 227.638 46.913 198.644 35.6494C169.65 24.3858 140.941 11.9051 109.829 5.9629C89.8181 2.1246 66.9359 1.5826 50.811 12.3141C35.2968 22.6613 30.2831 40.4732 27.5841 57.0138C25.5598 69.4649 24.363 82.5615 29.9235 94.2143C33.7799 102.305 40.6308 109.104 45.3688 116.855C61.8483 143.817 50.2003 177.066 32.3368 203.392C23.9641 215.739 14.2419 227.535 7.77516 240.671C1.30845 253.807 -1.68111 268.879 3.97295 282.291C9.58269 295.595 22.9446 305.568 37.4146 312.589C66.8128 326.848 101.441 330.933 135.238 333.244C210.011 338.363 285.189 336.146 360.159 333.929C387.907 333.106 415.774 332.273 443.069 327.981C458.228 325.597 473.881 321.813 484.883 312.707C498.851 301.113 502.313 281.478 492.956 266.943C477.254 242.558 433.854 236.498 422.866 210.329C416.823 195.927 423.028 179.879 431.805 166.521C450.639 137.86 482.204 112.721 483.869 79.9599C485.011 57.4622 469.837 34.93 446.374 24.2823C421.778 13.1222 387.676 14.5264 369.541 32.9986C350.846 51.9733 318.015 59.2902 289.872 58.3146Z" fill="#6C63FF"/>
<g opacity="0.1">
<path opacity="0.1" d="M47.4537 150.95C47.4537 150.95 10.6432 135.459 5.80179 163.392C5.80179 163.392 3.28504 167.747 6.78682 171.344C6.78682 171.344 7.54036 169.413 11.0963 171.408C12.3664 172.111 13.7155 172.66 15.1152 173.044C17.0055 173.566 19.0141 173.458 20.8382 172.739V172.739C20.8382 172.739 32.9492 172.083 43.1344 156.232C43.1344 156.232 47.5029 153.532 47.7197 152.517L40.4206 153.01C40.4206 153.01 40.9821 158.356 37.958 161.564C37.958 161.564 40.6373 153.266 39.3518 153.035C39.0908 152.985 35.4955 153.458 35.4955 153.458C35.4955 153.458 36.4263 162.756 31.5554 167.565C31.5554 167.565 36.0766 158.11 34.1115 153.626L28.7234 154.665C28.7234 154.665 30.2009 164.446 24.8719 170.132C24.8719 170.132 29.2553 160.08 27.5611 154.976L22.4044 156.71C22.4044 156.71 23.6456 166.274 19.1883 170.999C19.1883 170.999 23.0792 158.873 21.247 157.203C21.247 157.203 16.6075 159.085 15.6176 160.159C15.6176 160.159 16.3514 167.057 13.5195 169.546C13.5195 169.546 15.2581 161.169 14.3962 160.825C14.3962 160.825 9.00805 164.885 7.36306 168.388C7.36306 168.388 9.41192 163.037 13.7214 160.012C13.7214 160.012 10.1014 159.401 7.31873 160.913C7.31873 160.913 9.18044 157.361 15.0266 159.046C15.0266 159.046 19.3558 156.045 20.2226 156.089C20.2226 156.089 14.6917 153.626 10.6974 153.931C10.6974 153.931 14.9823 151.468 21.5721 155.582L26.7189 153.724C26.7189 153.724 19.5774 150.063 16.0018 150.078C16.0018 150.078 20.7594 148.235 28.0536 153.36L33.3235 152.286C33.3235 152.286 27.4133 148.664 23.4289 147.822C23.4289 147.822 28.2063 147.063 34.8453 152.034L38.4456 151.734C38.4456 151.734 34.0869 149.162 32.7669 148.536C31.447 147.91 31.5061 147.506 31.5061 147.506C34.646 148.053 37.5722 149.462 39.9576 151.576C39.9576 151.576 47.4241 151.409 47.4537 150.95Z" fill="#6C63FF"/>
</g>
<g opacity="0.1">
<path opacity="0.1" d="M46.1042 123.181C46.1042 123.181 33.0477 92.9914 14.273 106.837C14.273 106.837 10.3034 107.99 10.3329 112.109C10.3329 112.109 11.8794 111.39 12.8595 114.607C13.2189 115.748 13.715 116.842 14.3371 117.864C15.1592 119.253 16.4133 120.335 17.9078 120.944C17.9078 120.944 25.4777 127.457 40.5634 123.846C40.5634 123.846 44.7006 124.728 45.4048 124.255L40.7949 120.377C40.7949 120.377 38.0812 123.875 34.4464 124.043C34.4464 124.043 40.7654 120.643 40.1349 119.771C40.0069 119.594 37.5985 117.83 37.5985 117.83C37.5985 117.83 32.8605 123.88 27.2557 123.974C27.2557 123.974 35.328 120.929 36.712 117.15L32.9196 114.686C32.9196 114.686 28.221 121.333 21.8233 121.678C21.8233 121.678 30.1517 118.204 32.0528 114.203L27.9994 112.296C27.9994 112.296 23.291 118.702 17.9669 118.943C17.9669 118.943 27.1868 113.957 27.0439 111.922C27.0439 111.922 23.2171 110.394 22.0006 110.483C22.0006 110.483 18.5185 114.991 15.4107 114.863C15.4107 114.863 21.2175 110.877 20.9023 110.183C20.9023 110.183 15.3861 109.522 12.4163 110.675C12.4163 110.675 16.6814 108.665 20.9614 109.325C20.9614 109.325 19.1588 106.896 16.6519 106.221C16.6519 106.221 19.7843 105.172 22.2961 109.498C22.2961 109.498 26.5711 110.187 27.0735 110.7C27.0735 110.7 25.197 106.073 22.6409 103.989C22.6409 103.989 26.581 104.974 28.157 111.168L32.2744 112.996C32.2744 112.996 30.1172 106.748 27.9797 104.723C27.9797 104.723 31.8558 106.339 33.2742 113.543L37.0173 115.903C37.0173 115.903 35.5693 110.385 33.683 107.611C33.683 107.611 36.9533 109.887 38.0615 116.622L40.3763 118.495C40.3763 118.495 39.2484 114.484 38.8199 113.361C38.3915 112.237 38.6574 112.03 38.6574 112.03C40.2132 114.143 41.1495 116.648 41.3613 119.263C41.3613 119.263 45.8136 123.432 46.1042 123.181Z" fill="#6C63FF"/>
</g>
<path d="M206.858 266.825H198.341V295.375H206.858V266.825Z" fill="white"/>
<path d="M223.076 231.479H214.559V295.375H223.076V231.479Z" fill="white"/>
<path d="M239.301 199.633H230.784V295.375H239.301V199.633Z" fill="#DFE3EF"/>
<path d="M255.525 176.913H247.008V295.375H255.525V176.913Z" fill="white"/>
<path d="M239.301 176.913H230.784V295.375H239.301V176.913Z" fill="#CCCBEB"/>
<path d="M271.743 230.258H263.226V295.375H271.743V230.258Z" fill="#CCCBEB"/>
<path d="M287.968 213.428H279.451V295.375H287.968V213.428Z" fill="white"/>
<path d="M304.185 187.868H295.668V295.375H304.185V187.868Z" fill="white"/>
<path opacity="0.2" d="M320.41 247.5H311.893V295.375H320.41V247.5Z" fill="#6C63FF"/>
<path opacity="0.2" d="M336.635 225.395H328.118V295.375H336.635V225.395Z" fill="#6C63FF"/>
<path opacity="0.2" d="M352.852 199.633H344.335V295.375H352.852V199.633Z" fill="#6C63FF"/>
<path opacity="0.2" d="M369.077 199.633H360.56V295.375H369.077V199.633Z" fill="#6C63FF"/>
<path d="M252.793 324.778C252.3 322.994 251.808 321.186 250.823 319.634C249.909 318.316 248.822 317.128 247.592 316.101C244.021 312.854 239.633 309.558 234.9 310.38C233.432 310.701 232.014 311.218 230.684 311.918C229.994 312.238 229.3 312.558 228.591 312.829C226.592 313.664 224.384 313.857 222.272 313.381C221.188 313.09 220.178 312.568 219.11 312.243C218.6 312.091 218.08 311.979 217.553 311.908C218.585 311.44 219.588 310.912 220.558 310.326C225.872 307.04 230.112 301.127 229.516 294.87C229.319 292.751 228.591 290.726 227.871 288.73C227.241 286.986 226.609 285.24 225.975 283.493C225.158 281.221 224.315 278.91 222.818 277.023C221.154 274.924 218.789 273.5 216.347 272.436C211.096 270.155 205.359 269.351 199.695 268.573L199.301 268.519V207.303C199.304 206.783 199.204 206.268 199.008 205.787C198.811 205.306 198.522 204.868 198.155 204.5C197.789 204.131 197.354 203.839 196.874 203.639C196.394 203.439 195.88 203.337 195.361 203.337H187.909C187.581 201.326 187.252 199.318 186.924 197.311C185.983 191.59 185.013 185.756 182.378 180.602C180.654 177.227 177.906 174.015 174.207 173.349C173.479 173.282 172.763 173.116 172.079 172.857C170.996 172.325 170.405 171.142 169.568 170.265C167.42 168.013 163.928 167.979 161.047 166.816C158.506 165.806 156.427 163.899 154.113 162.436C151.798 160.972 148.917 159.928 146.351 160.884C146.351 161.071 146.316 161.253 146.296 161.44L144.651 160.701C142.878 159.883 141.066 159.036 139.642 157.686C137.81 155.956 136.835 153.675 136.077 151.241C135.998 150.985 135.924 150.748 135.85 150.477C138.998 147.26 141.128 143.186 141.977 138.765C142.11 139.194 142.248 139.628 142.381 140.061C142.502 140.502 142.667 140.929 142.873 141.337C142.942 141.472 143.019 141.602 143.105 141.727C143.267 141.968 143.471 142.18 143.706 142.352C143.939 142.522 144.212 142.629 144.499 142.663C144.636 142.682 144.775 142.682 144.912 142.663C145.284 142.584 145.631 142.413 145.92 142.166C146.209 141.919 146.431 141.604 146.567 141.249C146.646 141.055 146.704 140.853 146.74 140.647C146.759 140.523 146.77 140.398 146.774 140.273C146.774 140.234 146.774 140.194 146.774 140.155C146.774 140.115 146.774 139.982 146.774 139.899C146.774 139.815 146.774 139.805 146.774 139.761C146.774 139.716 146.774 139.593 146.774 139.514V139.386C146.774 139.288 146.745 139.189 146.725 139.095C146.705 139.002 146.725 139.041 146.725 139.017C146.7 138.888 146.671 138.765 146.646 138.637C146.644 138.609 146.644 138.581 146.646 138.553L146.572 138.243L146.528 138.056V138.007C146.479 137.814 146.434 137.617 146.39 137.42C146.032 135.708 145.941 133.952 146.119 132.212C146.416 129.66 146.886 127.132 147.528 124.644L147.631 124.196L147.749 123.673C147.828 123.318 147.902 122.964 147.976 122.609C148.04 122.308 148.099 122.003 148.153 121.697C148.207 121.392 148.247 121.16 148.286 120.889C148.286 120.855 148.286 120.825 148.286 120.791C148.587 118.954 148.668 117.089 148.527 115.233V115.233C148.296 112.656 147.498 110.217 145.745 108.271C144.509 106.896 142.883 105.881 141.736 104.437C140.657 103.082 140.051 101.417 138.938 100.092C135.86 96.4158 127.965 93.5827 123.119 93.09C117.568 92.5283 108.599 93.9473 104.127 97.2288C102.472 98.4409 101.34 100.185 100.187 101.846C98.0694 104.93 95.661 108.005 92.2676 109.729C90.9821 110.38 89.5144 110.872 88.6624 112.006C88.1476 112.774 87.811 113.648 87.6773 114.563C87.0226 117.774 86.6828 121.041 86.6628 124.319C86.5892 125.752 86.7727 127.187 87.2045 128.556C87.2735 128.743 87.3572 128.935 87.4459 129.118C87.5247 129.28 87.6133 129.443 87.7069 129.611L87.766 129.714C88.3604 130.568 88.8889 131.465 89.347 132.399C89.4554 132.663 89.5347 132.937 89.5834 133.217C89.6678 133.941 89.6211 134.673 89.4455 135.38C89.4455 135.489 89.4061 135.592 89.3814 135.696L89.3371 135.922C89.3371 135.991 89.3371 136.065 89.2977 136.134C89.2583 136.348 89.2238 136.56 89.1943 136.77C89.1943 136.918 89.1647 137.07 89.1598 137.223C89.1249 137.833 89.2417 138.443 89.4996 138.997C89.5644 139.129 89.642 139.254 89.7311 139.371C89.9076 139.608 90.1348 139.801 90.396 139.938C90.9828 140.159 91.5951 140.304 92.2183 140.372C94.0603 140.785 95.2128 142.195 95.9614 143.924C96.1274 144.312 96.2737 144.709 96.3998 145.112C96.707 146.123 96.9375 147.155 97.0893 148.201C97.9266 148.157 98.4142 147.418 98.7097 146.609C98.8021 146.343 98.8794 146.072 98.9412 145.796C99.0544 145.279 99.1677 144.762 99.2859 144.244C101.23 148.371 104.362 151.823 108.279 154.158C108.417 154.562 108.55 154.971 108.673 155.385C109.318 157.617 109.629 159.957 108.511 161.908C107.713 163.293 106.368 164.15 104.871 164.742C104.656 164.452 104.378 164.215 104.058 164.047C102.758 163.396 101.202 164.19 100.118 165.16C98.1482 166.944 96.5426 169.501 93.9471 170.088C93.0113 170.304 91.977 170.26 91.1939 170.832C90.6782 171.317 90.2471 171.885 89.9183 172.512C89.3554 173.32 88.5985 173.973 87.7173 174.412C86.8361 174.852 85.8587 175.062 84.8749 175.025C83.9736 174.98 82.9049 174.773 82.2892 175.434C81.8312 175.926 81.7967 176.71 81.3042 177.178C80.6393 177.828 79.5607 177.508 78.6348 177.469C77.9658 177.47 77.3041 177.608 76.6902 177.874C76.0763 178.14 75.523 178.529 75.0641 179.016C75.0059 177.028 74.245 175.125 72.9167 173.645C71.5869 172.275 69.74 171.571 68.1639 170.497C64.2238 167.816 62.2538 163.106 60.2 158.79C58.1462 154.473 55.4374 149.921 50.9555 148.349C49.9261 147.984 48.4929 147.955 48.03 148.955C47.8725 149.372 47.8467 149.828 47.9561 150.261C48.3895 152.557 50.0247 154.399 51.4382 156.247C53.817 159.361 55.8117 163.17 55.2354 167.062C54.5607 171.669 50.4581 175.246 49.9656 179.873C49.7489 181.913 50.266 183.963 50.2611 186.012C50.2611 187.293 50.0591 188.589 50.3349 189.836C50.6279 190.783 50.9748 191.713 51.3741 192.62C51.818 194.109 52.0469 195.653 52.0538 197.207C52.4019 203.737 52.7483 210.269 53.093 216.803C53.354 221.676 52.2902 226.485 51.2165 231.279C49.8853 234.121 48.8521 237.093 48.1334 240.148C46.9218 245.484 46.8873 251.17 48.6259 256.363C49.5568 259.187 50.9851 261.833 51.7485 264.705C51.7485 264.769 51.778 264.828 51.7928 264.887C51.8666 265.498 51.9504 266.109 52.0636 266.715C52.2037 267.416 52.3863 268.107 52.6104 268.785C52.8338 269.953 53.1976 271.089 53.6939 272.17C54.3846 273.542 55.3988 274.726 56.649 275.619C55.9397 277.008 54.7922 278.127 54.0288 279.487C52.699 281.842 52.6448 284.734 53.1275 287.405C54.0583 292.559 56.841 297.166 60.5152 300.91C60.3512 300.901 60.1867 300.901 60.0227 300.91C58.8208 301.043 57.6669 301.457 56.6539 302.117C48.8771 306.665 44.4297 316.406 46.055 325.325C46.3751 327.069 46.9317 328.833 48.094 330.158C49.0617 331.213 50.3055 331.976 51.6844 332.361C52.5457 332.62 53.4324 332.785 54.3292 332.853C60.3921 333.346 66.2628 330.533 72.3405 330.296C74.3554 330.264 76.3705 330.358 78.3738 330.577C81.2993 330.82 84.2314 330.975 87.1701 331.04C91.9425 331.154 94.6316 329.882 97.6803 326.31C98.4295 325.424 99.0542 324.439 99.5371 323.383C102.128 323.236 104.989 323.009 107.063 322.836L107.092 323.127C107.206 324.113 107.378 325.246 108.166 325.872C108.611 326.173 109.114 326.378 109.643 326.473C114.623 327.7 119.661 328.936 124.783 328.936C127.189 328.886 129.59 328.7 131.974 328.38L140.987 327.34C143.61 327.678 146.199 328.241 148.724 329.025C151.325 329.912 153.758 331.227 156.299 332.262C162.209 334.662 168.573 335.519 174.872 336.357C175.946 336.5 177.177 336.598 177.975 335.864C178.999 334.879 178.655 333.228 178.369 331.848C178.251 331.287 178.162 330.715 178.088 330.143C182.34 331.262 186.499 332.706 190.529 334.465L191.238 334.775C191.44 335.849 192.435 336.711 193.386 337.869C193.698 338.357 194.063 338.808 194.474 339.214C194.943 339.524 195.478 339.718 196.035 339.781C202.691 341.021 209.488 341.328 216.228 340.693C217.607 340.505 219.002 340.457 220.39 340.55C221.41 340.688 222.415 340.915 223.394 341.23L229.098 342.861C233.299 344.068 237.608 345.285 241.967 345.014C242.852 344.956 243.732 344.829 244.597 344.634C248.045 343.836 251.261 341.905 252.916 338.801C255.137 334.578 254.058 329.39 252.793 324.778ZM85.5054 247.711C85.3298 249.848 84.7726 251.935 83.8604 253.875C83.2496 255.112 82.4616 256.25 81.8903 257.492C81.3485 258.615 80.9447 260.739 80.7033 263.069C80.4078 263.02 80.1074 262.976 79.8119 262.941C80.2502 261.404 80.5802 259.827 81.0186 258.285C82.0578 254.619 83.7668 251.155 85.5054 247.711Z" fill="url(#paint0_linear)"/>
<path d="M93.0949 323.492C92.0557 321.127 91.0707 318.407 92.1099 316.042C92.7882 314.649 93.9535 313.553 95.3851 312.962C96.8018 312.384 98.295 312.016 99.8178 311.868C104.597 311.241 109.434 311.175 114.229 311.671C114.578 314.44 113.84 317.249 113.204 319.924C112.628 322.388 112.298 322.753 109.757 322.881C108.112 322.97 93.484 324.364 93.0949 323.492Z" fill="#FBBEBE"/>
<path d="M136.953 307.537C175.851 307.537 207.383 298.713 207.383 287.829C207.383 276.944 175.851 268.12 136.953 268.12C98.0563 268.12 66.5239 276.944 66.5239 287.829C66.5239 298.713 98.0563 307.537 136.953 307.537Z" fill="#464353"/>
<path opacity="0.1" d="M136.953 307.537C175.851 307.537 207.383 298.713 207.383 287.829C207.383 276.944 175.851 268.12 136.953 268.12C98.0563 268.12 66.5239 276.944 66.5239 287.829C66.5239 298.713 98.0563 307.537 136.953 307.537Z" fill="black"/>
<path d="M149.581 183.785C147.167 188.452 143.158 192.096 138.283 194.054C135.413 195.1 132.393 195.676 129.339 195.758C125.995 195.911 122.582 195.694 119.44 194.551C115.224 193.024 111.722 189.9 109.097 186.259C106.472 182.618 104.664 178.459 103.093 174.266C102.266 172.083 101.478 169.758 101.867 167.452C104.403 166.875 107.181 166.028 108.491 163.776C109.609 161.844 109.299 159.529 108.653 157.321C108.471 156.695 108.259 156.075 108.048 155.478C107.555 154.05 105.856 151.335 107.038 150.113C107.792 149.339 110.949 148.945 112.037 148.442C115.391 146.895 118.484 144.658 122.168 143.924C125.355 143.289 128.645 143.885 131.826 144.545C132.248 144.606 132.654 144.752 133.018 144.974C133.434 145.324 133.741 145.785 133.905 146.304C134.811 148.511 135.343 150.95 136.072 153.251C136.83 155.661 137.805 157.922 139.633 159.632C141.056 160.967 142.868 161.805 144.641 162.618L149.005 164.618C149.781 164.909 150.485 165.365 151.069 165.954C151.639 166.738 151.98 167.667 152.054 168.634C152.836 173.819 151.971 179.118 149.581 183.785V183.785Z" fill="#FBBEBE"/>
<path opacity="0.1" d="M136.052 153.251C132.578 156.866 128.005 159.227 123.047 159.963C118.089 160.7 113.027 159.77 108.653 157.321C108.471 156.695 108.259 156.075 108.048 155.478C107.555 154.05 105.856 151.335 107.038 150.113C107.792 149.339 110.949 148.945 112.037 148.442C115.391 146.895 118.484 144.658 122.168 143.924C125.355 143.289 128.645 143.885 131.826 144.545C132.248 144.606 132.654 144.752 133.018 144.974C133.434 145.324 133.741 145.785 133.905 146.304C134.791 148.511 135.323 150.95 136.052 153.251Z" fill="black"/>
<path d="M119.715 159.228C132.228 159.228 142.371 149.081 142.371 136.563C142.371 124.045 132.228 113.898 119.715 113.898C107.203 113.898 97.0598 124.045 97.0598 136.563C97.0598 149.081 107.203 159.228 119.715 159.228Z" fill="#FBBEBE"/>
<path d="M188.741 210.121L186.88 198.838C185.939 193.177 184.969 187.407 182.339 182.307C180.61 178.967 177.867 175.784 174.168 175.123C173.439 175.058 172.723 174.892 172.04 174.631C170.957 174.108 170.366 172.936 169.533 172.068C167.386 169.841 163.889 169.807 161.013 168.674C158.471 167.688 156.393 165.791 154.078 164.343C151.763 162.894 148.882 161.879 146.321 162.805C145.907 167.215 145.469 171.724 143.597 175.739C142.379 178.353 140.592 180.662 138.368 182.497C136.143 184.331 133.536 185.645 130.739 186.342C127.941 187.039 125.023 187.102 122.198 186.526C119.373 185.95 116.713 184.749 114.411 183.012C110.023 179.706 107.21 174.606 105.9 169.27C105.58 167.969 105.216 166.476 104.019 165.88C102.724 165.229 101.167 166.018 100.079 166.974C98.0842 168.743 96.4983 171.275 93.9076 171.871C92.9719 172.088 91.9376 172.044 91.1594 172.61C90.6422 173.088 90.2093 173.649 89.8789 174.271C89.312 175.072 88.5545 175.72 87.6749 176.155C86.7953 176.59 85.8212 176.8 84.8405 176.764C83.9392 176.72 82.8704 176.513 82.2548 177.168C81.7967 177.661 81.7622 178.429 81.2697 178.888C80.6048 179.533 79.5262 179.218 78.6003 179.183C76.8469 179.109 75.2167 180.233 74.212 181.647C73.2073 183.061 72.7345 184.81 72.2419 186.505C77.6251 198.498 82.5503 210.506 87.9334 222.499C88.1856 222.951 88.3195 223.459 88.3225 223.977C88.2146 224.514 87.9855 225.02 87.6527 225.455C85.0128 229.697 85.0966 235.033 85.3871 240.02C85.6777 245.006 86.0323 250.273 83.8062 254.742C83.2004 255.969 82.4123 257.093 81.8361 258.319C80.4866 261.098 79.999 269.987 80.787 272.973H192.095C189.972 267.134 190.78 255.417 191.223 249.219C191.534 244.883 190.731 240.552 190.386 236.216C189.662 227.362 190.204 218.961 188.741 210.121Z" fill="#F86D70"/>
<path d="M194.44 269.524C196.08 268.898 197.887 269.125 199.645 269.361C205.304 270.135 211.047 270.928 216.292 273.19C218.755 274.244 221.099 275.653 222.764 277.728C224.242 279.595 225.103 281.881 225.921 284.133L227.812 289.302C228.531 291.273 229.26 293.283 229.462 295.377C230.053 301.58 225.813 307.429 220.479 310.651C215.145 313.874 208.865 315.022 202.748 316.224C196.631 317.426 190.49 318.757 184.397 320.166C181.556 320.904 178.673 321.471 175.763 321.866C169.243 322.605 162.426 321.516 156.23 323.674C153.768 324.536 151.35 325.817 148.793 326.414C147.098 326.786 145.383 327.062 143.656 327.241L131.93 328.582C129.545 328.901 127.144 329.085 124.739 329.133C119.617 329.133 114.578 327.921 109.604 326.709C109.075 326.616 108.572 326.413 108.126 326.113C107.338 325.492 107.166 324.393 107.053 323.398C106.55 318.993 106.11 314.583 105.733 310.169C105.615 308.735 105.526 307.183 106.309 305.976C107.294 304.497 109.215 304.034 110.968 303.748C118.403 302.532 125.935 302.009 133.466 302.186C136.328 299.324 141.046 299.309 144.794 297.752C146.173 297.119 147.507 296.393 148.788 295.579C155.49 291.667 162.979 289.299 170.71 288.646C172.225 288.6 173.73 288.385 175.197 288.006C178.098 287.104 180.743 284.651 183.722 285.252C184.092 284.232 184.348 282.867 185.2 282.167C185.624 281.808 186.146 281.566 186.535 281.182C187.357 280.349 187.431 279.038 187.308 277.876C187.185 276.713 186.909 275.52 187.209 274.387C187.334 273.958 187.518 273.548 187.756 273.17C189.239 270.578 191.47 269.278 194.44 269.524Z" fill="#464353"/>
<path opacity="0.05" d="M194.44 269.524C196.08 268.898 197.887 269.125 199.645 269.361C205.304 270.135 211.047 270.928 216.292 273.19C218.755 274.244 221.099 275.653 222.764 277.728C224.242 279.595 225.103 281.881 225.921 284.133L227.812 289.302C228.531 291.273 229.26 293.283 229.462 295.377C230.053 301.58 225.813 307.429 220.479 310.651C215.145 313.874 208.865 315.022 202.748 316.224C196.631 317.426 190.49 318.757 184.397 320.166C181.556 320.904 178.673 321.471 175.763 321.866C169.243 322.605 162.426 321.516 156.23 323.674C153.768 324.536 151.35 325.817 148.793 326.414C147.098 326.786 145.383 327.062 143.656 327.241L131.93 328.582C129.545 328.901 127.144 329.085 124.739 329.133C119.617 329.133 114.578 327.921 109.604 326.709C109.075 326.616 108.572 326.413 108.126 326.113C107.338 325.492 107.166 324.393 107.053 323.398C106.55 318.993 106.11 314.583 105.733 310.169C105.615 308.735 105.526 307.183 106.309 305.976C107.294 304.497 109.215 304.034 110.968 303.748C118.403 302.532 125.935 302.009 133.466 302.186C136.328 299.324 141.046 299.309 144.794 297.752C146.173 297.119 147.507 296.393 148.788 295.579C155.49 291.667 162.979 289.299 170.71 288.646C172.225 288.6 173.73 288.385 175.197 288.006C178.098 287.104 180.743 284.651 183.722 285.252C184.092 284.232 184.348 282.867 185.2 282.167C185.624 281.808 186.146 281.566 186.535 281.182C187.357 280.349 187.431 279.038 187.308 277.876C187.185 276.713 186.909 275.52 187.209 274.387C187.334 273.958 187.518 273.548 187.756 273.17C189.239 270.578 191.47 269.278 194.44 269.524Z" fill="black"/>
<path d="M97.6261 326.537C94.5774 330.07 91.8932 331.331 87.1208 331.218C84.1854 331.149 81.2533 330.996 78.3244 330.759C76.3226 330.543 74.3094 330.449 72.2961 330.479C66.2185 330.715 60.3526 333.499 54.2898 333.011C53.3933 332.941 52.5068 332.775 51.645 332.518C50.2772 332.137 49.0414 331.385 48.0742 330.346C46.9119 329.03 46.3554 327.286 46.0352 325.561C44.4149 316.722 48.8573 307.094 56.6341 302.595C57.6488 301.94 58.8022 301.53 60.0029 301.398C61.1803 301.393 62.3442 301.649 63.4111 302.147L63.485 302.177C66.6445 303.477 69.5141 305.393 71.9267 307.813C72.2927 308.233 72.7295 308.585 73.2171 308.853C73.7037 309.037 74.2188 309.134 74.739 309.139L81.2106 309.548C82.307 309.581 83.3968 309.731 84.4612 309.996C85.6346 310.406 86.7769 310.9 87.8792 311.474C91.3613 313.031 95.2226 313.445 98.9854 314.046C99.348 314.066 99.694 314.205 99.9704 314.441C100.121 314.627 100.225 314.847 100.276 315.081C100.801 317.062 100.834 319.141 100.373 321.138C99.9107 323.135 98.9678 324.988 97.6261 326.537V326.537Z" fill="#3F3D56"/>
<path opacity="0.1" d="M63.4653 302.177C60.9545 304.575 58.7762 307.3 56.9887 310.277C54.1204 315.191 52.3181 320.654 51.6991 326.31C51.4644 328.374 51.4463 330.456 51.645 332.523C50.2767 332.141 49.0408 331.387 48.0742 330.346C46.9119 329.03 46.3554 327.286 46.0352 325.561C44.4149 316.722 48.8573 307.094 56.6341 302.595C57.6488 301.94 58.8022 301.53 60.0029 301.398C61.1803 301.393 62.3442 301.649 63.4111 302.147L63.4653 302.177Z" fill="black"/>
<path d="M188.805 314.431C192.425 314.332 196.488 314.15 199.148 316.589C201.684 318.895 202.019 322.698 202.187 326.123L202.379 330.099C202.438 331.311 202.487 332.563 202 333.686C201.133 335.657 198.754 336.608 196.582 336.495C194.41 336.381 192.415 335.43 190.43 334.573C185.042 332.251 179.431 330.483 173.685 329.296C173.872 326.547 174.184 323.81 174.621 321.087C174.921 319.2 174.97 316.042 176.231 314.475C177.566 312.819 179.305 313.716 181.117 314.022C183.66 314.41 186.235 314.547 188.805 314.431V314.431Z" fill="#FBBEBE"/>
<path d="M93.1491 274.481C93.1491 274.973 92.3759 274.481 92.3069 273.954C91.7651 269.967 88.6032 266.681 84.9192 265.085C81.2352 263.488 77.039 263.404 73.0496 263.784C67.0163 264.355 60.2689 266.666 58.0378 272.308C57.5157 273.628 57.2793 275.057 56.6391 276.324C55.9298 277.713 54.7724 278.822 54.0041 280.172C52.6792 282.507 52.6251 285.37 53.1028 288.011C54.3883 295.057 59.2051 301.083 65.0413 305.256C70.8776 309.43 77.699 311.923 84.5006 314.169C102.486 320.104 120.938 324.513 139.662 327.35C142.696 327.808 145.759 328.232 148.665 329.207C151.266 330.079 153.699 331.385 156.24 332.41C162.15 334.785 168.509 335.632 174.808 336.465C175.882 336.603 177.113 336.702 177.906 335.972C178.93 335.021 178.59 333.366 178.3 332.001C177.23 326.816 178.124 321.418 180.807 316.855C181.861 315.081 183.23 313.263 183.033 311.208C182.797 308.814 180.413 307.119 178.039 306.734C175.665 306.35 173.252 306.917 170.868 307.227C170.045 307.335 169.149 307.404 168.405 306.986C168.051 306.746 167.73 306.461 167.45 306.138C165.808 304.553 163.706 303.529 161.446 303.213C159.186 302.897 156.885 303.305 154.871 304.379C153.989 304.872 152.655 303.773 151.739 303.359L141.391 298.664C129.492 293.278 117.533 287.868 104.945 284.458C103.94 284.261 102.986 283.864 102.137 283.291C101.512 282.798 101.064 282.128 100.488 281.581C99.2316 280.393 97.4832 279.92 95.9761 279.078C94.4691 278.235 92.7945 276.171 93.1491 274.481Z" fill="#464353"/>
<path d="M252.817 338.875C251.162 341.944 247.951 343.856 244.504 344.644C243.638 344.84 242.759 344.965 241.874 345.019C237.515 345.29 233.21 344.083 229.009 342.89L223.306 341.274C222.325 340.965 221.32 340.741 220.301 340.604C218.915 340.511 217.522 340.559 216.145 340.747C209.404 341.374 202.609 341.069 195.952 339.84C195.395 339.78 194.86 339.589 194.39 339.284C193.979 338.88 193.614 338.432 193.302 337.948C191.75 336.081 190.081 334.992 191.918 332.528C192.977 331.099 194.942 330.385 195.764 328.744C196.587 327.103 196.06 324.773 195.572 323.078C194.907 320.737 192.721 319.727 191.938 317.579C191.351 315.958 192.337 314.076 193.819 313.194C195.301 312.312 197.134 312.243 198.843 312.47C200.552 312.696 202.226 313.179 203.945 313.312C208.998 313.716 214.165 311.11 219.016 312.578C220.085 312.903 221.094 313.421 222.178 313.706C224.29 314.179 226.497 313.988 228.497 313.159C229.206 312.893 229.901 312.573 230.59 312.258C231.92 311.565 233.336 311.053 234.801 310.735C239.534 309.922 243.922 313.199 247.493 316.397C248.719 317.414 249.804 318.591 250.719 319.895C251.704 321.432 252.226 323.221 252.689 324.985C253.994 329.552 255.073 334.686 252.817 338.875Z" fill="#3F3D56"/>
<path opacity="0.1" d="M252.817 338.875C251.162 341.944 247.951 343.856 244.504 344.644C245.845 342.038 246.449 339.114 246.252 336.189C245.957 331.503 243.898 327.089 241.273 323.196C239.658 320.8 237.821 318.561 235.786 316.51C234.22 314.933 232.294 313.682 230.61 312.238C231.94 311.545 233.356 311.033 234.821 310.716C239.554 309.903 243.942 313.179 247.513 316.377C248.739 317.395 249.823 318.571 250.739 319.875C251.724 321.412 252.246 323.201 252.709 324.965C253.994 329.552 255.073 334.686 252.817 338.875Z" fill="black"/>
<path d="M104.063 99.7762C102.408 100.974 101.276 102.693 100.123 104.344C98.0004 107.394 95.5969 110.439 92.2035 112.139C90.9181 112.784 89.4504 113.272 88.5983 114.395C88.0926 115.155 87.7644 116.019 87.6379 116.923C86.9879 120.102 86.6481 123.336 86.6234 126.58C86.6234 128.196 86.6923 129.862 87.4064 131.33C88.0812 132.71 89.2977 133.878 89.5489 135.38C89.741 136.553 89.3075 137.721 89.1549 138.898C89.0022 140.076 89.2681 141.47 90.3566 142.032C90.9431 142.253 91.5556 142.397 92.1789 142.461C95.4541 143.19 96.5524 147.033 97.0499 150.211C98.1629 150.147 98.6653 148.871 98.8968 147.831L102.31 132.651C102.679 131.005 103.295 129.098 104.935 128.522C106.033 128.142 107.235 128.497 108.383 128.596C112.889 128.965 116.701 125.482 121.109 124.521C122.52 124.238 123.963 124.143 125.399 124.24C128.876 124.412 132.92 125.841 133.658 129.088C133.782 129.615 133.855 130.246 134.348 130.507C134.84 130.768 135.333 130.547 135.875 130.507C138.081 130.286 139.381 132.769 140.017 134.799L142.332 142.19C142.676 143.308 143.258 144.624 144.469 144.767C145.587 144.905 146.538 143.845 146.705 142.796C146.873 141.746 146.508 140.657 146.267 139.603C145.178 134.75 146.843 129.783 147.858 124.92C148.872 120.057 149.054 114.469 145.651 110.725C144.415 109.37 142.79 108.359 141.637 106.931C140.563 105.59 139.958 103.945 138.845 102.629C135.766 98.9977 127.871 96.1942 123.03 95.731C117.519 95.1249 108.535 96.5292 104.063 99.7762Z" fill="#3F3D56"/>
<g opacity="0.1">
<path opacity="0.1" d="M144.489 141.313C143.277 141.165 142.696 139.835 142.351 138.736C141.58 136.269 140.808 133.805 140.037 131.345C139.401 129.31 138.101 126.827 135.894 127.053C135.402 127.108 134.821 127.31 134.368 127.053C133.915 126.797 133.801 126.162 133.678 125.634C132.939 122.382 128.896 120.958 125.419 120.786C123.983 120.692 122.54 120.786 121.129 121.067C116.696 122.052 112.909 125.501 108.402 125.142C107.24 125.048 106.038 124.693 104.955 125.073C103.295 125.644 102.699 127.536 102.33 129.202L98.9165 144.377C98.685 145.422 98.1827 146.698 97.0696 146.757C96.5771 143.584 95.4739 139.741 92.1986 139.012C91.5761 138.943 90.9642 138.799 90.3763 138.583C89.9478 138.349 89.6124 137.975 89.4258 137.524C89.3371 137.982 89.2337 138.44 89.1746 138.898C89.0268 140.071 89.2879 141.47 90.3763 142.032C90.9628 142.253 91.5753 142.397 92.1986 142.461C95.4739 143.19 96.5721 147.033 97.0696 150.211C98.1827 150.147 98.685 148.871 98.9165 147.831L102.33 132.651C102.699 131.005 103.315 129.098 104.955 128.522C106.053 128.142 107.255 128.497 108.402 128.596C112.909 128.965 116.721 125.482 121.129 124.521C122.534 124.239 123.969 124.145 125.399 124.24C128.876 124.412 132.92 125.841 133.658 129.088C133.782 129.616 133.855 130.246 134.348 130.507C134.84 130.768 135.333 130.547 135.875 130.507C138.081 130.286 139.381 132.769 140.017 134.799C140.785 137.266 141.557 139.729 142.332 142.19C142.676 143.308 143.258 144.624 144.469 144.767C145.587 144.905 146.538 143.845 146.705 142.796C146.781 141.913 146.68 141.023 146.41 140.179C146.235 140.535 145.96 140.832 145.618 141.033C145.277 141.234 144.885 141.331 144.489 141.313Z" fill="black"/>
<path opacity="0.1" d="M89.5538 131.931C89.3026 130.428 88.0763 129.261 87.4114 127.881C86.9839 126.951 86.7366 125.947 86.6825 124.925C86.6825 125.477 86.6332 126.028 86.6283 126.585C86.6283 128.201 86.6972 129.867 87.4114 131.335C87.9581 132.454 88.8594 133.439 89.3125 134.577C89.5514 133.717 89.6331 132.821 89.5538 131.931Z" fill="black"/>
<path opacity="0.1" d="M147.877 121.446C146.981 125.743 145.582 130.118 146.016 134.424C146.296 131.246 147.222 128.049 147.877 124.895C148.423 122.502 148.616 120.042 148.449 117.593C148.341 118.888 148.151 120.175 147.877 121.446V121.446Z" fill="black"/>
</g>
<path d="M91.4943 231.9C90.8983 241.685 83.7224 249.771 80.989 259.182C80.3093 261.537 79.9005 263.981 78.9254 266.223C76.9553 270.731 72.9019 274.003 68.5826 276.309C67.0066 277.22 65.2829 277.847 63.4899 278.161C61.5191 278.392 59.5248 278.016 57.7729 277.084C56.021 276.151 54.5947 274.707 53.684 272.943C52.5562 270.652 52.3985 268.016 51.714 265.553C50.9506 262.71 49.5223 260.088 48.5914 257.295C46.8775 252.155 46.9119 246.529 48.0989 241.247C49.2236 236.653 51.0034 232.246 53.3836 228.16C53.7283 227.554 54.078 226.953 54.4375 226.357C55.4535 224.633 56.5943 222.986 57.8507 221.429C60.8057 217.867 64.603 215.127 68.3609 212.427C68.6479 212.191 68.9846 212.022 69.3459 211.935H69.405C69.8288 211.92 70.2488 212.018 70.6216 212.22C75.8331 214.474 80.8352 217.185 85.5694 220.321C87.2636 221.449 89.9379 222.71 90.8245 224.632C91.711 226.554 91.6223 229.811 91.4943 231.9Z" fill="#FBBEBE"/>
<path d="M71.9416 186.87C71.4618 187.372 71.0897 187.967 70.8482 188.619C66.867 197.595 64.5155 207.209 63.9037 217.01C63.9145 217.487 63.8043 217.96 63.5836 218.384C63.3659 218.666 63.1237 218.929 62.8596 219.168C62.6198 219.452 62.4409 219.783 62.3339 220.139C62.2269 220.495 62.1941 220.869 62.2374 221.239C62.2808 221.608 62.3995 221.965 62.5862 222.287C62.7728 222.609 63.0235 222.889 63.3226 223.109C64.1352 221.577 66.0807 221.079 67.8094 220.946C76.0885 220.291 84.1756 224.144 92.4794 223.853C91.8933 221.828 91.0511 219.882 90.5734 217.832C88.4605 208.732 93.7304 198.823 90.4995 190.058C89.8543 188.304 88.7757 186.579 87.0765 185.81C86.373 185.526 85.6367 185.331 84.8848 185.229C82.7867 184.85 78.6102 183.229 76.581 183.879C75.8324 184.12 75.5369 184.825 74.9163 185.249C73.9953 185.855 72.7444 186.067 71.9416 186.87Z" fill="#F86D70"/>
<path opacity="0.1" d="M75.3349 268.341C74.0686 270.49 72.2706 272.277 70.1141 273.529C67.9576 274.781 65.5152 275.457 63.0221 275.491C61.6726 275.526 60.3306 275.279 59.0819 274.766C55.9348 273.377 54.1568 269.938 53.4968 266.558C52.8369 263.178 53.0437 259.689 52.5759 256.275C52.2015 253.555 51.4037 250.914 50.9899 248.199C49.9754 241.483 51.975 234.851 53.3983 228.165C53.7431 227.559 54.0928 226.958 54.4523 226.361C55.4683 224.638 56.609 222.991 57.8654 221.434C60.8205 217.872 64.6178 215.132 68.3757 212.432H64.4356C64.5309 212.362 64.6429 212.319 64.7603 212.306C64.8776 212.293 64.9964 212.311 65.1046 212.359C65.2128 212.406 65.3066 212.481 65.3768 212.576C65.4469 212.671 65.4909 212.783 65.5043 212.9C65.8934 216.349 70.7545 219.798 71.8134 223.149C72.4685 225.208 73.2565 227.229 73.7835 229.328C74.1989 231.115 74.5146 232.925 74.7291 234.748C75.4285 239.849 76.1246 244.94 76.8174 250.022C77.6891 256.225 78.4377 262.931 75.3349 268.341Z" fill="black"/>
<path d="M68.814 203.647L73.5668 188.732C74.276 186.5 74.9951 184.234 75.0788 181.888C75.1626 179.543 74.5469 177.084 72.9068 175.409C71.5771 174.054 69.7351 173.354 68.159 172.295C64.2189 169.639 62.2488 164.988 60.1951 160.706C58.1413 156.424 55.4374 151.946 50.9555 150.359C49.9212 149.994 48.4929 149.965 48.03 150.955C47.8698 151.367 47.844 151.819 47.9561 152.246C48.3895 154.523 50.0197 156.341 51.4382 158.159C53.817 161.238 55.8068 165.008 55.2354 168.861C54.5558 173.423 50.4581 176.961 49.9656 181.548C49.7489 183.569 50.266 185.594 50.2611 187.629C50.2611 188.89 50.0542 190.176 50.3349 191.408C50.6263 192.36 50.9733 193.295 51.3741 194.206C51.8128 195.68 52.0416 197.207 52.0538 198.744L53.093 218.138C53.6545 228.628 47.966 238.832 49.5321 249.179C49.9459 251.894 50.7437 254.535 51.118 257.255C51.6105 260.67 51.3791 264.153 52.039 267.538C52.699 270.923 54.5016 274.358 57.6241 275.747C58.8729 276.26 60.2148 276.507 61.5643 276.471C64.0574 276.437 66.4998 275.762 68.6563 274.509C70.8128 273.257 72.6108 271.471 73.8771 269.322C76.9799 263.902 76.2313 257.206 75.3842 251.027L73.2959 235.753C73.0814 233.93 72.7657 232.121 72.3503 230.333C71.8282 228.234 71.0402 226.214 70.3802 224.154C68.2674 217.419 66.6864 210.338 68.814 203.647Z" fill="#FBBEBE"/>
<path d="M195.331 204.805H93.3511C91.1832 204.805 89.4258 206.563 89.4258 208.732V270.844C89.4258 273.013 91.1832 274.771 93.3511 274.771H195.331C197.499 274.771 199.256 273.013 199.256 270.844V208.732C199.256 206.563 197.499 204.805 195.331 204.805Z" fill="#3F3D56"/>
<path opacity="0.2" d="M195.331 204.805H93.3511C91.1832 204.805 89.4258 206.563 89.4258 208.732V270.844C89.4258 273.013 91.1832 274.771 93.3511 274.771H195.331C197.499 274.771 199.256 273.013 199.256 270.844V208.732C199.256 206.563 197.499 204.805 195.331 204.805Z" fill="black"/>
<path d="M144.095 242.744C145.727 242.744 147.05 241.421 147.05 239.788C147.05 238.155 145.727 236.832 144.095 236.832C142.463 236.832 141.14 238.155 141.14 239.788C141.14 241.421 142.463 242.744 144.095 242.744Z" fill="white"/>
<g opacity="0.1">
<path opacity="0.1" d="M238.372 256.669C238.124 256.934 237.861 257.184 237.584 257.418C237.865 257.418 238.14 257.373 238.421 257.344C238.411 257.117 238.396 256.891 238.372 256.669Z" fill="black"/>
<path opacity="0.1" d="M233.91 253.742C234.525 253.703 235.131 253.639 235.742 253.55C236.29 253.48 236.825 253.334 237.333 253.116C237.083 252.624 236.797 252.151 236.476 251.702C236.169 251.889 235.837 252.03 235.491 252.121C235.008 252.703 234.479 253.245 233.91 253.742Z" fill="black"/>
<path opacity="0.1" d="M218.863 258.999C218.86 257.131 219.36 255.297 220.311 253.689C221.262 252.082 222.628 250.76 224.267 249.864C225.905 248.969 227.755 248.532 229.621 248.599C231.487 248.667 233.301 249.237 234.87 250.249L235.028 250.081C234.003 249.169 232.809 248.469 231.513 248.021C230.217 247.574 228.845 247.387 227.477 247.472C226.108 247.557 224.77 247.911 223.539 248.516C222.309 249.121 221.21 249.963 220.306 250.994C219.402 252.026 218.711 253.226 218.273 254.525C217.835 255.825 217.658 257.199 217.753 258.567C217.847 259.936 218.212 261.272 218.825 262.498C219.438 263.725 220.288 264.818 221.326 265.715C219.733 263.841 218.86 261.46 218.863 258.999V258.999Z" fill="black"/>
</g>
<path d="M209.459 79.3915L182.503 93.9613C182.417 94.0131 182.346 94.0873 182.298 94.1761C182.25 94.2648 182.227 94.3649 182.231 94.4657C182.235 94.5665 182.266 94.6644 182.321 94.7491C182.376 94.8337 182.452 94.902 182.543 94.9467L187.143 96.6762C187.41 96.7804 187.627 96.9832 187.749 97.2428L191.319 104.604C191.388 104.929 191.989 105.013 191.994 104.683L191.447 98.6027C191.48 98.151 191.652 97.7206 191.94 97.3709L205.917 83.6733C205.957 83.635 206.006 83.607 206.059 83.5916C206.112 83.5762 206.168 83.5737 206.223 83.5846C206.272 83.5988 206.317 83.6245 206.354 83.6596C206.391 83.6947 206.419 83.7382 206.436 83.7864C206.453 83.8347 206.458 83.8862 206.451 83.9368C206.444 83.9874 206.425 84.0356 206.395 84.0773L194.348 98.8885C194.087 99.2457 193.917 99.6621 193.856 100.101L193.161 105.353C193.22 105.811 193.58 105.984 193.866 105.575L196.461 102.525C196.502 102.466 196.555 102.415 196.616 102.377C196.677 102.338 196.745 102.312 196.816 102.3C196.887 102.288 196.96 102.291 197.03 102.307C197.1 102.324 197.166 102.354 197.225 102.397L203.913 107.275C203.986 107.329 204.072 107.363 204.162 107.375C204.253 107.387 204.344 107.376 204.429 107.343C204.514 107.31 204.59 107.257 204.648 107.187C204.707 107.117 204.747 107.034 204.765 106.945L210.252 79.9976C210.275 79.8955 210.269 79.7888 210.233 79.6903C210.198 79.5917 210.135 79.5054 210.052 79.4416C209.969 79.3778 209.869 79.3391 209.765 79.3302C209.661 79.3214 209.556 79.3426 209.463 79.3915H209.459Z" fill="#6C63FF"/>
<path d="M398.089 138.065L371.134 152.654C371.048 152.707 370.977 152.781 370.929 152.87C370.882 152.959 370.859 153.059 370.864 153.16C370.868 153.261 370.9 153.359 370.955 153.443C371.01 153.528 371.088 153.596 371.178 153.64L375.773 155.374C375.907 155.423 376.029 155.499 376.133 155.596C376.238 155.694 376.321 155.811 376.379 155.941L379.955 163.297C380.024 163.622 380.62 163.711 380.63 163.381L380.083 157.296C380.115 156.845 380.287 156.416 380.575 156.069L394.548 142.371C394.588 142.332 394.636 142.304 394.69 142.288C394.743 142.273 394.799 142.271 394.853 142.283C394.903 142.296 394.948 142.321 394.986 142.356C395.024 142.391 395.052 142.435 395.07 142.483C395.087 142.531 395.093 142.583 395.086 142.634C395.079 142.685 395.06 142.733 395.031 142.775L382.979 157.518C382.717 157.876 382.548 158.294 382.486 158.735L381.762 163.987C381.821 164.445 382.181 164.623 382.472 164.209L385.067 161.164C385.108 161.105 385.161 161.054 385.222 161.016C385.283 160.977 385.351 160.951 385.422 160.939C385.493 160.927 385.566 160.93 385.636 160.946C385.706 160.963 385.772 160.993 385.831 161.036L392.519 165.909C392.592 165.963 392.677 165.997 392.767 166.01C392.857 166.022 392.949 166.011 393.034 165.978C393.118 165.945 393.193 165.891 393.251 165.821C393.309 165.751 393.349 165.668 393.366 165.578L398.853 138.632C398.876 138.529 398.87 138.423 398.834 138.324C398.799 138.226 398.736 138.139 398.653 138.076C398.57 138.012 398.47 137.973 398.366 137.964C398.262 137.955 398.157 137.977 398.065 138.025L398.089 138.065Z" fill="#6C63FF"/>
<path d="M253.773 23.2188L235.367 33.1767C235.304 33.2107 235.252 33.2617 235.216 33.324C235.18 33.3863 235.162 33.4575 235.165 33.5293C235.167 33.6012 235.19 33.6709 235.23 33.7305C235.27 33.7901 235.326 33.8372 235.392 33.8666L238.534 35.0491C238.717 35.1187 238.865 35.2565 238.948 35.4334L241.411 40.4592C241.46 40.6809 241.869 40.74 241.874 40.5183L241.499 36.3597C241.523 36.0529 241.64 35.7606 241.834 35.5221L251.379 26.1604C251.406 26.1341 251.439 26.115 251.475 26.1047C251.511 26.0944 251.549 26.0932 251.586 26.1013C251.622 26.1095 251.655 26.1269 251.683 26.1518C251.71 26.1766 251.731 26.2081 251.743 26.2431C251.755 26.2782 251.757 26.3157 251.751 26.3521C251.744 26.3885 251.728 26.4226 251.704 26.4511L243.479 36.5174C243.307 36.7631 243.197 37.0473 243.159 37.3452L242.667 40.9322C242.706 41.2475 242.947 41.3658 243.159 41.0849L244.932 39.0056C244.988 38.9317 245.07 38.8816 245.161 38.8652C245.252 38.8487 245.346 38.8672 245.425 38.917L249.99 42.2478C250.04 42.2846 250.099 42.3082 250.161 42.3163C250.222 42.3244 250.285 42.3169 250.343 42.2942C250.401 42.2716 250.452 42.2347 250.492 42.187C250.532 42.1392 250.559 42.0822 250.571 42.0211L254.319 23.6229C254.337 23.553 254.334 23.4795 254.31 23.4114C254.287 23.3434 254.244 23.2837 254.187 23.2397C254.13 23.1957 254.061 23.1694 253.989 23.1639C253.917 23.1585 253.846 23.1741 253.783 23.209L253.773 23.2188Z" fill="#6C63FF"/>
<path d="M350.603 83.0461L332.198 93.009C332.136 93.0433 332.085 93.0943 332.05 93.156C332.015 93.2178 331.998 93.288 332 93.359C332.003 93.4299 332.025 93.4987 332.064 93.5578C332.103 93.6169 332.158 93.664 332.223 93.6938L335.365 94.8764C335.549 94.9463 335.698 95.0862 335.779 95.2656L338.217 100.286C338.266 100.508 338.675 100.567 338.679 100.346L338.325 96.1919C338.348 95.8834 338.465 95.5894 338.66 95.3494L348.205 85.9877C348.232 85.9614 348.265 85.9423 348.301 85.932C348.337 85.9217 348.375 85.9205 348.412 85.9285C348.448 85.9368 348.481 85.9542 348.508 85.9791C348.536 86.0039 348.557 86.0353 348.568 86.0704C348.58 86.1055 348.583 86.143 348.576 86.1794C348.569 86.2158 348.553 86.2499 348.53 86.2784L340.295 96.3545C340.122 96.6003 340.013 96.8844 339.975 97.1823L339.482 100.774C339.522 101.085 339.768 101.203 339.975 100.922L341.748 98.8428C341.776 98.8028 341.811 98.7688 341.853 98.7427C341.894 98.7166 341.94 98.6989 341.988 98.6906C342.036 98.6824 342.085 98.6837 342.133 98.6946C342.18 98.7055 342.225 98.7257 342.265 98.7541L346.836 102.085C346.885 102.122 346.944 102.146 347.005 102.154C347.066 102.162 347.129 102.155 347.187 102.132C347.244 102.109 347.295 102.072 347.335 102.024C347.374 101.976 347.401 101.919 347.412 101.858L351.13 83.46C351.148 83.3902 351.145 83.3167 351.121 83.2486C351.098 83.1805 351.055 83.1208 350.998 83.0768C350.941 83.0329 350.872 83.0065 350.8 83.0011C350.728 82.9956 350.656 83.0113 350.593 83.0461H350.603Z" fill="#6C63FF"/>
<path d="M290.423 133.494L236.089 129.005C235.902 128.986 235.713 129.02 235.544 129.104C235.376 129.188 235.235 129.319 235.139 129.481C235.043 129.643 234.995 129.829 235 130.017C235.006 130.205 235.066 130.387 235.173 130.543L240.339 137.599C240.49 137.802 240.598 138.034 240.659 138.28C240.72 138.526 240.732 138.782 240.694 139.032L238.862 153.469C238.65 154.016 239.458 154.73 239.788 154.248L244.89 144.63C245.375 143.99 246.049 143.518 246.816 143.28L280.947 136.47C281.043 136.452 281.142 136.457 281.235 136.486C281.329 136.514 281.414 136.564 281.484 136.633C281.55 136.703 281.597 136.788 281.622 136.881C281.646 136.975 281.647 137.073 281.623 137.166C281.599 137.259 281.553 137.345 281.487 137.416C281.421 137.486 281.339 137.539 281.247 137.569L248.973 147.832C248.244 148.122 247.596 148.585 247.087 149.182L240.906 156.307C240.551 157.051 240.906 157.657 241.743 157.327L248.574 155.312C248.815 155.221 249.081 155.228 249.317 155.331C249.552 155.434 249.738 155.625 249.835 155.864L255.055 169.63C255.117 169.778 255.213 169.909 255.336 170.012C255.46 170.114 255.606 170.185 255.763 170.218C255.919 170.251 256.082 170.245 256.236 170.201C256.39 170.157 256.531 170.076 256.646 169.965L291.009 135.165C291.138 135.033 291.228 134.868 291.269 134.688C291.309 134.508 291.298 134.32 291.237 134.146C291.176 133.972 291.067 133.819 290.923 133.704C290.779 133.588 290.606 133.516 290.423 133.494V133.494Z" fill="#6C63FF"/>
<path d="M293.88 216.314L261.393 225.895C261.283 225.93 261.184 225.993 261.109 226.08C261.033 226.167 260.982 226.272 260.963 226.386C260.943 226.499 260.956 226.616 260.998 226.723C261.041 226.83 261.112 226.923 261.204 226.992L265.775 229.924C265.908 230.008 266.022 230.118 266.112 230.246C266.201 230.375 266.265 230.52 266.299 230.673L268.475 239.437C268.473 239.807 269.101 240.036 269.182 239.683L269.97 232.974C270.109 232.495 270.393 232.071 270.783 231.761L289.036 220.163C289.087 220.129 289.146 220.108 289.207 220.103C289.269 220.099 289.33 220.109 289.386 220.135C289.44 220.161 289.487 220.2 289.521 220.249C289.556 220.297 289.578 220.354 289.585 220.414C289.592 220.473 289.584 220.533 289.562 220.589C289.54 220.644 289.504 220.693 289.457 220.731L273.063 233.944C272.704 234.274 272.432 234.688 272.271 235.148L270.288 240.665C270.244 241.173 270.594 241.445 271.001 241.066L274.509 238.37C274.629 238.267 274.782 238.214 274.94 238.22C275.097 238.226 275.246 238.292 275.357 238.403L281.471 245.213C281.541 245.282 281.627 245.332 281.72 245.362C281.814 245.391 281.913 245.398 282.009 245.382C282.106 245.365 282.197 245.327 282.276 245.269C282.355 245.211 282.419 245.135 282.464 245.047L294.607 217.158C294.649 217.053 294.662 216.938 294.643 216.826C294.625 216.713 294.577 216.609 294.503 216.522C294.43 216.435 294.334 216.371 294.226 216.334C294.119 216.298 294.003 216.292 293.893 216.317L293.88 216.314Z" fill="#6C63FF"/>
<path d="M428.111 207.137L411.131 208.453C411.073 208.458 411.018 208.479 410.972 208.514C410.925 208.549 410.89 208.595 410.868 208.649C410.847 208.703 410.84 208.762 410.85 208.819C410.86 208.876 410.885 208.929 410.923 208.972L412.865 210.892C412.921 210.948 412.966 211.013 412.997 211.086C413.028 211.159 413.044 211.237 413.044 211.316L413.199 215.854C413.159 216.035 413.444 216.214 413.521 216.049L414.61 212.831C414.728 212.61 414.912 212.431 415.136 212.319L425.326 208.523C425.355 208.512 425.386 208.508 425.417 208.512C425.447 208.516 425.477 208.528 425.501 208.546C425.525 208.565 425.544 208.589 425.556 208.616C425.568 208.644 425.573 208.674 425.57 208.704C425.567 208.734 425.557 208.763 425.54 208.788C425.524 208.813 425.501 208.833 425.474 208.847L416.029 213.631C415.818 213.756 415.641 213.931 415.514 214.141L413.962 216.647C413.887 216.892 414.031 217.063 414.27 216.919L416.278 215.959C416.347 215.922 416.429 215.911 416.505 215.931C416.582 215.95 416.648 215.998 416.691 216.065L418.987 220.053C419.014 220.094 419.051 220.128 419.094 220.152C419.137 220.176 419.185 220.19 419.234 220.192C419.283 220.194 419.332 220.185 419.377 220.165C419.422 220.144 419.461 220.114 419.492 220.075L428.381 207.628C428.412 207.58 428.43 207.525 428.433 207.468C428.436 207.411 428.423 207.354 428.396 207.304C428.369 207.254 428.329 207.212 428.279 207.183C428.23 207.154 428.174 207.139 428.117 207.139L428.111 207.137Z" fill="#6C63FF"/>
<path d="M397.996 234.522L397.839 236.636C397.816 236.924 397.267 243.76 393.22 251.75C389.747 258.603 382.988 267.529 370.229 272.545C369.233 272.939 368.2 273.306 367.128 273.648L365.934 269.896C368.933 268.952 371.822 267.688 374.551 266.125C381.055 262.369 386.112 257.008 389.638 250.108C391.509 246.435 392.842 242.512 393.597 238.459H379.08V234.522H397.996Z" fill="#6C63FF"/>
<path opacity="0.1" d="M368.666 272.548C381.423 267.531 388.184 258.608 391.655 251.755C395.702 243.765 396.253 236.933 396.274 236.641L396.431 234.526H398.052L397.895 236.641C397.874 236.928 397.323 243.765 393.275 251.755C389.802 258.608 383.044 267.531 370.286 272.548C369.291 272.941 368.257 273.309 367.184 273.652L367.026 273.159C367.585 272.96 368.132 272.756 368.666 272.548Z" fill="white"/>
<path d="M343.123 269.896L341.928 273.648C340.856 273.305 339.821 272.937 338.826 272.543C326.068 267.527 319.307 258.603 315.837 251.75C311.79 243.76 311.239 236.928 311.218 236.636L311.06 234.522H329.967V238.459H315.448C316.207 242.512 317.544 246.435 319.419 250.108C322.945 257.008 327.999 262.369 334.503 266.123C337.232 267.687 340.122 268.952 343.123 269.896V269.896Z" fill="#6C63FF"/>
<path opacity="0.1" d="M340.386 272.548C327.629 267.531 320.868 258.608 317.397 251.755C313.35 243.765 312.799 236.933 312.778 236.641L312.621 234.526H311L311.157 236.641C311.178 236.928 311.729 243.765 315.777 251.755C319.25 258.608 326.008 267.531 338.766 272.548C339.761 272.941 340.795 273.309 341.868 273.652L342.026 273.159C341.468 272.96 340.922 272.756 340.386 272.548Z" fill="white"/>
<path d="M376.369 306.164V327.394H332.685V306.164L334.075 304.311C348.231 299.285 351.099 286.179 351.671 280.994C351.756 280.277 351.805 279.557 351.817 278.835H357.219C357.231 279.557 357.279 280.277 357.365 280.994C357.946 286.179 360.814 299.29 374.961 304.311L376.369 306.164Z" fill="#6C63FF"/>
<path opacity="0.1" d="M376.369 306.164H332.685V308.827H376.369V306.164Z" fill="black"/>
<path opacity="0.1" d="M336.39 304.311C350.546 299.285 353.415 286.179 353.986 280.994C354.072 280.277 354.12 279.557 354.132 278.835H351.817C351.805 279.557 351.756 280.277 351.671 280.994C351.09 286.179 348.221 299.29 334.075 304.311L332.685 306.164V327.394H335.001V306.164L336.39 304.311Z" fill="white"/>
<path opacity="0.1" d="M326.05 234.522H329.967V238.459H326.397C326.257 237.162 326.141 235.85 326.05 234.522Z" fill="black"/>
<path opacity="0.1" d="M343.123 269.896L341.928 273.648C340.855 273.305 339.821 272.937 338.826 272.543C337.188 270.542 335.741 268.393 334.503 266.123C337.232 267.687 340.122 268.952 343.123 269.896Z" fill="black"/>
<path opacity="0.1" d="M365.931 269.896C368.931 268.952 371.82 267.688 374.549 266.125C373.311 268.396 371.863 270.546 370.226 272.548C369.231 272.941 368.197 273.309 367.126 273.65L365.931 269.896Z" fill="black"/>
<path opacity="0.1" d="M383.002 234.522C382.911 235.85 382.795 237.162 382.655 238.459H379.087V234.522H383.002Z" fill="black"/>
<path opacity="0.1" d="M357.374 280.994C355.494 281.358 353.561 281.358 351.68 280.994C351.766 280.277 351.814 279.557 351.826 278.835H357.228C357.24 279.557 357.289 280.277 357.374 280.994V280.994Z" fill="black"/>
<path d="M326.513 228C326.612 257.195 339.115 280.804 354.528 280.804C369.941 280.804 382.442 257.195 382.544 228H326.513Z" fill="#6C63FF"/>
<path opacity="0.1" d="M331.491 228H326.513C326.612 257.195 339.115 280.804 354.528 280.804C355.362 280.802 356.195 280.732 357.017 280.593C342.769 278.212 331.586 255.606 331.491 228Z" fill="white"/>
<path d="M369.383 314.29H339.671V321.933H369.383V314.29Z" fill="#3F3D56"/>
<path opacity="0.1" d="M341.06 315.333H369.383V314.29H339.671V321.933H341.06V315.333Z" fill="white"/>
<defs>
<linearGradient id="paint0_linear" x1="149.936" y1="345.053" x2="149.936" y2="92.952" gradientUnits="userSpaceOnUse">
<stop stop-color="#808080" stop-opacity="0.25"/>
<stop offset="0.54" stop-color="#808080" stop-opacity="0.12"/>
<stop offset="1" stop-color="#808080" stop-opacity="0.1"/>
</linearGradient>
</defs>
</svg>
